HIERARCHY
ROOT hip
{
	OFFSET 0.000000 0.000000 0.000000 
	CHANNELS 6 Xposition Yposition Zposition Xrotation Zrotation Yrotation
	JOINT abdomen
	{
		OFFSET 0.000000 3.402643 0.000000 
		CHANNELS 3 Xrotation Zrotation Yrotation
		JOINT chest
		{
			OFFSET 0.000000 8.438565 -0.680529 
			CHANNELS 3 Xrotation Zrotation Yrotation
			JOINT neck
			{
				OFFSET 0.000000 10.207942 -0.272212 
				CHANNELS 3 Xrotation Zrotation Yrotation
				JOINT head
				{
					OFFSET 0.000000 3.130431 0.000000 
					CHANNELS 3 Xrotation Zrotation Yrotation
					End Site
					{
						OFFSET 0.000000 3.130435 0.000000 
					}
				}
			}
			JOINT lCollar
			{
				OFFSET 3.470700 6.669187 -0.816635 
				CHANNELS 3 Yrotation Zrotation Xrotation
				JOINT lShldr
				{
					OFFSET 3.198488 0.000000 0.000000 
					CHANNELS 3 Zrotation Yrotation Xrotation
					JOINT lForeArm
					{
						OFFSET 10.139888 0.000000 0.000000 
						CHANNELS 3 Yrotation Zrotation Xrotation
						JOINT lHand
						{
							OFFSET 8.370511 0.000000 0.000000 
							CHANNELS 3 Zrotation Yrotation Xrotation
							End Site
							{
								OFFSET 4.083176 0.000000 0.000000 
							}
						}
					}
				}
			}
			JOINT rCollar
			{
				OFFSET -3.470700 6.669187 -0.816635 
				CHANNELS 3 Yrotation Zrotation Xrotation
				JOINT rShldr
				{
					OFFSET -3.198488 0.000000 0.000000 
					CHANNELS 3 Zrotation Yrotation Xrotation
					JOINT rForeArm
					{
						OFFSET -10.139888 0.000000 0.000000 
						CHANNELS 3 Yrotation Zrotation Xrotation
						JOINT rHand
						{
							OFFSET -8.370511 0.000000 0.000000 
							CHANNELS 3 Zrotation Yrotation Xrotation
							End Site
							{
								OFFSET -4.083176 0.000000 0.000000 
							}
						}
					}
				}
			}
		}
	}
	JOINT lThigh
	{
		OFFSET 5.308129 -1.633274 1.361059 
		CHANNELS 3 Xrotation Zrotation Yrotation
		JOINT lShin
		{
			OFFSET -2.041588 -20.007561 0.000000 
			CHANNELS 3 Xrotation Zrotation Yrotation
			JOINT lFoot
			{
				OFFSET 0.000000 -19.190928 -1.224953 
				CHANNELS 3 Xrotation Yrotation Zrotation
				End Site
				{
					OFFSET 0.000000 -2.449906 4.627600 
				}
			}
		}
	}
	JOINT rThigh
	{
		OFFSET -5.308129 -1.633274 1.361059 
		CHANNELS 3 Xrotation Zrotation Yrotation
		JOINT rShin
		{
			OFFSET 2.041588 -20.007561 0.000000 
			CHANNELS 3 Xrotation Zrotation Yrotation
			JOINT rFoot
			{
				OFFSET 0.000000 -19.190928 -1.224953 
				CHANNELS 3 Xrotation Yrotation Zrotation
				End Site
				{
					OFFSET 0.000000 -2.449906 4.627600 
				}
			}
		}
	}
}
MOTION
Frames: 16
Frame Time: 0.016667
0.000000 25.500835 0.000000 35.759983 -3.716986 -22.540359 6.495819 -13.552852 -10.603100 4.035187 -0.537053 0.830042 -30.713755 5.120852 12.482336 1.718894 2.557677 1.535162 0.000000 0.000000 0.000000 -16.964560 -12.062367 -56.129414 -49.702183 -4.946934 4.075781 9.277604 -6.224375 35.237785 0.000000 0.000000 0.000000 -2.088363 43.867554 -64.970757 33.034874 2.735432 4.451687 0.974868 17.704645 7.637245 -101.230133 -22.685686 16.629230 50.488499 -2.774815 -3.449080 -1.529583 -16.812920 8.938461 -97.383980 -40.231995 14.252090 73.511230 1.035133 4.775978 -44.643215 -5.392864 -0.086126 
-0.456645 25.117311 0.000000 34.816139 -5.783414 -17.573622 6.495819 -13.552852 -10.603100 3.686920 -0.537091 0.478495 -28.098255 4.445180 6.367085 2.074185 2.744041 0.489124 0.000000 0.000000 0.000000 -15.755939 -22.982611 -62.132011 -45.998188 -5.083334 4.189019 9.452965 -6.201200 36.468277 0.000000 0.000000 0.000000 -2.088091 44.569233 -64.971085 33.387657 2.738831 4.441951 4.014446 21.155287 14.851056 -102.469841 -22.704342 18.808340 50.297287 -2.652902 -3.389907 -0.930402 -17.753170 6.131672 -100.404030 -40.418396 16.318472 77.556389 0.488244 4.514817 -44.295101 -8.171727 0.462098 
-1.370018 24.864040 0.000000 34.062008 -7.305839 -14.071705 6.495819 -13.552852 -10.603100 3.513593 -0.361322 0.322259 -26.216328 4.235937 1.909913 2.244605 2.910156 -0.029259 0.000000 0.000000 0.000000 -14.027262 -30.949732 -67.173981 -43.191280 -5.180090 4.277079 9.457157 -6.198657 37.344303 0.000000 0.000000 0.000000 -2.078118 44.921864 -64.949318 33.555244 2.727865 4.441098 6.841473 23.354418 20.523777 -103.255051 -22.724979 21.861912 51.362064 -2.386785 -3.346641 -0.445189 -18.385880 4.285127 -101.425407 -41.970055 17.386385 81.761391 0.309224 4.638505 -44.073200 -10.368800 0.415090 
-1.826689 24.581829 0.000000 33.311466 -8.854216 -10.548384 6.495819 -13.552852 -10.603100 3.339369 -0.185546 0.146484 -24.295532 4.164462 -2.936838 2.421327 3.095450 -0.733463 0.000000 0.000000 0.000000 -11.014256 -38.588451 -72.735100 -40.365463 -5.263907 4.374008 9.628740 -6.178268 38.216854 0.000000 0.000000 0.000000 -2.062669 45.452225 -64.948524 33.908401 2.726985 4.439095 9.687200 25.366108 26.094875 -104.105492 -22.901178 24.812014 52.083012 -2.357694 -3.200794 0.040315 -19.412329 2.066642 -102.703712 -43.583630 18.257376 85.829857 -0.068408 4.810622 -44.035999 -12.492171 0.271025 
-2.283499 24.335783 0.000000 32.369530 -10.141665 -6.935668 6.495819 -13.552852 -10.603100 3.164064 -0.009766 -0.009767 -22.516665 4.289380 -7.491291 2.593734 3.270456 -1.437665 0.000000 0.000000 0.000000 -6.838061 -46.125301 -79.843353 -37.549107 -5.351124 4.467237 9.826118 -6.338644 39.090591 0.000000 0.000000 0.000000 -1.862412 45.807156 -64.929688 34.084606 2.730840 4.429902 12.935280 27.234869 31.973366 -104.941811 -22.910946 27.552628 52.759392 -2.572917 -3.369987 0.748801 -19.850685 0.045121 -103.858429 -45.192997 19.451296 89.841179 -0.595746 4.746311 -43.885979 -14.848101 0.349896 
-2.283499 26.593033 0.000000 32.751965 -8.609403 -6.934270 6.495819 -13.552852 -10.603100 3.164063 0.000000 0.000000 -23.453222 3.750654 -5.744378 2.588652 3.094966 -1.251340 0.000000 0.000000 0.000000 -10.178330 -43.364990 -74.300064 -42.118668 -5.203623 4.315850 12.265544 -7.668408 38.372910 0.000000 0.000000 0.000000 -1.862412 45.807156 -64.929688 34.084606 2.730840 4.429902 14.188637 23.638304 27.241755 -106.116119 -18.848511 22.517538 62.966061 -1.724482 -3.653700 -8.484756 -16.095921 -2.287745 -99.937927 -39.559849 18.076834 92.815605 -0.751657 4.780435 -47.849686 -15.803024 0.424559 
-2.283499 28.966686 0.000000 33.131527 -6.943368 -6.808367 6.495819 -13.552852 -10.603100 3.164063 0.000000 0.000000 -24.555199 3.350178 -4.245292 2.415113 2.919563 -0.899261 0.000000 0.000000 0.000000 -13.229246 -40.460995 -68.956718 -46.530079 -5.065008 4.168932 14.742222 -9.157739 37.648064 0.000000 0.000000 0.000000 -1.862412 45.807156 -64.929688 34.084606 2.730840 4.429902 15.597642 20.214340 22.505604 -107.708961 -14.990359 17.258089 73.717155 -1.032646 -3.970427 -17.576353 -12.478220 -4.281211 -96.404770 -33.935375 16.834919 95.965591 -1.289135 4.412173 -52.030231 -16.679434 0.535044 
-2.283499 30.233292 0.000000 33.387039 -5.440777 -6.749453 6.495819 -13.552852 -10.603100 3.164063 0.000000 0.000000 -25.660355 2.985322 -2.551979 2.414313 2.919690 -0.723210 0.000000 0.000000 0.000000 -15.639335 -37.248329 -64.238792 -51.277924 -4.897677 4.033453 17.202564 -10.661085 36.935085 0.000000 0.000000 0.000000 -1.862412 45.807156 -64.929688 34.084606 2.730840 4.429902 17.337900 16.820133 17.775072 -109.515228 -11.103398 12.024318 84.077957 -0.400305 -4.226818 -26.009609 -8.100262 -5.410989 -93.187309 -28.300406 16.517284 98.960464 -1.259645 4.602116 -56.419731 -17.757452 0.601556 
-2.283499 30.240826 0.000000 33.644989 -3.811264 -6.763562 6.495819 -13.552852 -10.603100 3.164063 0.000000 0.000000 -26.764999 2.607012 -1.016351 2.425428 2.744020 -0.537429 0.000000 0.000000 0.000000 -17.757889 -34.038803 -59.797577 -55.673588 -4.733120 3.915744 19.817535 -11.972253 36.050732 0.000000 0.000000 0.000000 -1.862412 45.807156 -64.929688 34.084606 2.730840 4.429902 19.399345 13.627975 13.035674 -111.944283 -7.606753 6.537507 94.607986 0.117009 -4.323068 -34.539822 -3.886600 -5.525498 -90.246384 -22.519213 16.018135 101.942490 -1.826082 4.489901 -60.628078 -18.899763 0.492209 
-2.283499 29.054401 0.000000 33.942627 -2.201388 -6.762930 6.495819 -13.552852 -10.603100 3.164063 0.000000 0.000000 -27.862665 2.245920 0.713491 2.247536 2.568346 -0.185361 0.000000 0.000000 0.000000 -19.414068 -30.689638 -55.774895 -60.261879 -4.539817 3.806969 22.440025 -13.453553 35.175449 0.000000 0.000000 0.000000 -1.862412 45.807156 -64.929688 34.084606 2.730840 4.429902 21.591698 10.633721 8.079007 -114.071617 -4.227542 1.063920 104.580368 1.202114 -4.169644 -42.733971 0.572397 -5.845758 -87.291023 -16.923983 15.893747 104.881577 -2.404020 4.479414 -64.696785 -19.972818 0.915996 
-2.283499 29.278257 0.000000 29.008575 -1.545795 -12.289836 6.495819 -13.552852 -10.603100 4.375000 0.000000 1.386719 -28.052769 -0.771129 -1.738518 2.248552 2.216634 -0.693596 0.000000 0.000000 0.000000 -20.616280 -30.170540 -50.158287 -59.551224 -4.568352 3.824446 21.371788 -13.220586 35.861698 0.000000 0.000000 0.000000 -1.862412 45.807156 -64.929688 35.666710 2.692214 4.408770 18.371700 13.028835 12.096997 -110.703522 4.200281 -7.491979 106.204849 1.181366 -4.150496 -29.521341 -6.603030 -3.453224 -80.897301 -7.089818 9.908189 109.472237 -2.743696 4.206848 -54.239117 -21.581976 3.897505 
-2.283499 30.471638 0.000000 23.905380 -1.291131 -17.983257 6.495819 -13.552852 -10.603100 5.615990 -0.185328 2.783188 -28.117144 -3.807266 -4.375035 2.255807 1.864824 -1.201807 0.000000 0.000000 0.000000 -21.817358 -29.858801 -44.536514 -58.850086 -4.599514 3.833310 20.092932 -12.835225 36.717808 0.000000 0.000000 0.000000 -1.862412 45.807156 -64.929688 37.247669 2.670320 4.389569 15.103585 15.755703 15.703235 -108.617058 13.340466 -15.998959 107.608635 1.152014 -4.293671 -15.782250 -12.725230 0.806630 -75.467178 3.456972 5.026028 114.384636 -3.108209 4.209871 -43.211102 -22.274221 6.859702 
-2.283499 31.658733 0.000000 18.808346 -1.511041 -23.719696 6.495819 -13.552852 -10.603100 6.851143 -0.185011 4.355478 -28.075035 -6.797640 -6.826572 2.254412 1.513130 -1.533700 0.000000 0.000000 0.000000 -22.873901 -29.414568 -39.087952 -58.327213 -4.623412 3.855544 19.009939 -12.584057 37.406849 0.000000 0.000000 0.000000 -1.862412 45.807156 -64.929688 38.653172 2.636344 4.374904 12.133120 18.867392 19.384449 -107.806343 22.500607 -24.415960 109.161003 1.552209 -4.397026 -1.349407 -18.255461 6.052154 -70.715347 14.314273 1.209265 119.142090 -3.323388 4.068227 -32.525913 -22.426651 9.904284 
-2.283499 31.745951 0.000000 18.101254 0.160100 -24.384855 6.495819 -13.552852 -10.603100 7.727728 -0.710729 4.463152 -29.044744 -7.292586 -5.356176 2.073509 1.513247 -1.357722 0.000000 0.000000 0.000000 -21.564438 -29.562763 -40.667175 -55.683361 -4.733787 3.914765 17.732182 -12.199923 36.376377 0.000000 0.000000 0.000000 -0.705803 45.262955 -63.899002 36.727295 2.675367 4.388771 10.572334 16.447149 21.296467 -105.125481 19.882925 -28.662861 105.476807 1.035242 -4.444297 -0.798572 -17.379292 1.157303 -70.778084 12.782747 -4.199522 118.432922 -3.323492 4.216462 -31.880096 -21.562677 7.945416 
-2.283499 31.623013 0.000000 17.407818 2.168989 -24.979897 6.495819 -13.552852 -10.603100 8.603738 -1.226606 4.541854 -30.025038 -7.920424 -3.993992 1.896233 1.337606 -1.181774 0.000000 0.000000 0.000000 -20.265762 -29.892460 -42.343643 -52.864563 -4.836661 3.991895 16.293533 -11.997061 35.132961 0.000000 0.000000 0.000000 0.463532 44.539600 -62.977753 34.615482 2.714385 4.418129 8.994717 14.188396 23.362589 -102.550491 17.258450 -32.781109 101.627068 1.054311 -4.362629 0.033561 -16.586060 -3.841151 -70.379509 11.211103 -8.722528 117.199394 -3.142920 4.434069 -31.423290 -20.580988 6.028506 
-2.283499 31.311899 0.000000 16.739960 4.023834 -25.672771 6.495819 -13.552852 -10.603100 9.658821 -1.741952 4.787096 -30.999962 -8.224284 -2.566017 1.903623 1.161934 -0.996285 0.000000 0.000000 0.000000 -18.965288 -30.039200 -43.930519 -49.879719 -4.937648 4.067262 15.054693 -11.963268 33.715042 0.000000 0.000000 0.000000 1.627895 43.818523 -61.933109 32.503990 2.752033 4.461738 7.247284 11.917608 25.427706 -99.535194 14.816914 -37.448074 97.768852 0.536858 -4.323068 0.876338 -15.670582 -8.628409 -69.956032 9.803869 -13.394596 116.150047 -2.749163 4.644697 -30.595539 -19.988667 3.822120 
